<?xml version="1.0" encoding="utf-8"?>
<!-- Generator: Adobe Illustrator 22.0.1, SVG Export Plug-In . SVG Version: 6.00 Build 0)  -->
<svg version="1.1" id="Layer_1" xmlns="http://www.w3.org/2000/svg" xmlns:xlink="http://www.w3.org/1999/xlink" x="0px" y="0px"
	 viewBox="0 0 128 128" style="enable-background:new 0 0 128 128;" xml:space="preserve">
<style type="text/css">
	.st0{clip-path:url(#SVGID_2_);}
	.st1{fill:#2D2D2D;}
	.st2{fill:#575757;}
	.st3{fill:#818181;}
	.st4{fill:#ABABAB;}
	.st5{fill:#D5D5D5;}
	.st6{fill:#FFFFFF;}
	.st7{fill:#F4FF21;}
	.st8{fill:#212020;}
	.st9{fill:#272032;}
</style>
<g>
	<defs>
		<path id="SVGID_1_" d="M64,128L64,128C28.7,128,0,99.3,0,64v0C0,28.7,28.7,0,64,0h0c35.3,0,64,28.7,64,64v0
			C128,99.3,99.3,128,64,128z"/>
	</defs>
	<clipPath id="SVGID_2_">
		<use xlink:href="#SVGID_1_"  style="overflow:visible;"/>
	</clipPath>
	<g class="st0">
		<path d="M64,128L64,128C28.7,128,0,99.3,0,64v0C0,28.7,28.7,0,64,0h0c35.3,0,64,28.7,64,64v0C128,99.3,99.3,128,64,128z"/>
		<g>
			<polygon class="st1" points="64,105.5 52,138.5 64,132.5 76,138.5 			"/>
			<polygon class="st2" points="64,91.6 52,124.6 64,118.6 76,124.6 			"/>
			<polygon class="st3" points="64,77.7 52,110.7 64,104.7 76,110.7 			"/>
			<polygon class="st4" points="64,63.8 52,96.8 64,90.8 76,96.8 			"/>
			<polygon class="st5" points="64,49.9 52,82.9 64,76.9 76,82.9 			"/>
			<polygon class="st6" points="64,36 52,69 64,63 76,69 			"/>
		</g>
		<path class="st7" d="M76.5,107.1c1.3-2.1,2.4-4.3,3.7-6.4c0.7-1.1,0.8-2.7,1.5-4c4.1-1.7,8-0.9,10.8,2.1c2.9,3.1,3.1,6.9,0.9,12.2
			c1.7-1.2,3.4-2.4,5.1-3.7c1-0.7,1.8-1.6,2.8-2.4c0.3-0.2,0.6-0.9,1-0.4c0.5,0.5-0.3,0.8-0.6,1c-4.4,4.1-9.3,7.3-14.8,9.7
			c-1.7,0.8-3.5,1.4-5.3,2.1c-0.3,0.1-0.8,0.4-1-0.1c-0.2-0.5,0.4-0.5,0.7-0.7c1.6-0.6,3.3-1,5.1-2.1
			C81.1,114.3,77.9,111.8,76.5,107.1z"/>
		<path class="st7" d="M102.7,33.5c5-1.1,9.9,2,11.1,7c1.1,5-2,10-7,11.1c-5,1.1-9.9-2-11.1-7C94.6,39.6,97.7,34.7,102.7,33.5z"/>
		<path class="st7" d="M103.5,93.3c-2,0.5-4-0.8-4.5-2.8c-0.5-2,0.7-3.9,2.6-4.4c2-0.5,4,0.7,4.5,2.7
			C106.7,90.7,105.5,92.8,103.5,93.3z"/>
		<path class="st7" d="M90,29.1c-2,0.4-4-0.8-4.4-2.9c-0.4-2,0.8-3.9,2.8-4.3c2-0.5,4,0.8,4.5,2.8C93.3,26.7,92,28.7,90,29.1z"/>
		<path class="st7" d="M111,68.5c-2,0.5-4-0.7-4.5-2.8c-0.5-2,0.7-3.9,2.6-4.4c2-0.5,4,0.6,4.5,2.6C114.2,66,113,68.1,111,68.5z"/>
		<path class="st7" d="M59.7,111.4c-0.5-2,0.7-4,2.8-4.5c2-0.5,3.9,0.7,4.4,2.7c0.5,2-0.7,4-2.7,4.5
			C62.2,114.7,60.2,113.4,59.7,111.4z"/>
		<path class="st7" d="M72.4,9.7c0.3-0.7,0.7-0.6,1.2-0.5c10,1.9,19,6,26.7,12.7c2,1.8,4,3.7,5.7,5.7c0.2,0.3,0.8,0.5,0.4,0.9
			c-0.5,0.5-0.7-0.2-0.9-0.4c-3.5-4-7.5-7.5-12.1-10.4c-5.6-3.5-11.6-6-18-7.4C74.4,10.1,73.5,9.9,72.4,9.7z"/>
		<path class="st7" d="M80.1,97.8c-0.6,2.2-1.6,4.2-2.7,6.3c-0.3,0.5-0.7,1-1,1.5C76.3,102.3,77.6,99.7,80.1,97.8z"/>
		<path class="st7" d="M53.1,9.8c-0.1-0.4,0-0.7,0.5-0.8c0.4-0.1,0.8,0,0.9,0.4c0.1,0.5,0,0.8-0.5,0.9C53.5,10.4,53.2,10.2,53.1,9.8
			z"/>
		<path class="st7" d="M64.1,8.5c0.1,0.4-0.1,0.7-0.5,0.9c-0.4,0.1-0.7,0-0.9-0.4c-0.1-0.5,0-0.8,0.5-0.9C63.7,7.9,64,8.1,64.1,8.5z
			"/>
		<path class="st7" d="M44.6,12.9c-0.4,0.1-0.7,0-0.9-0.4c-0.2-0.5,0-0.8,0.5-1c0.4-0.1,0.7,0.1,0.8,0.5
			C45.2,12.4,45.1,12.7,44.6,12.9z"/>
		<path class="st7" d="M118.1,49.2c0.1,0.4-0.1,0.7-0.5,0.8c-0.4,0.1-0.7,0.1-0.9-0.4c-0.1-0.5,0-0.8,0.5-0.9
			C117.7,48.6,117.9,48.8,118.1,49.2z"/>
		<path class="st7" d="M118,73.7c-0.1-0.4,0-0.7,0.5-0.8c0.4-0.1,0.7,0,0.9,0.4c0.1,0.5,0,0.8-0.5,0.9
			C118.4,74.3,118.1,74.1,118,73.7z"/>
		<path class="st7" d="M110,96.4c-0.7,0.1-0.9-0.1-1-0.5c-0.1-0.4,0.1-0.7,0.5-0.8c0.5-0.1,0.8,0.1,0.9,0.6
			C110.4,96.1,110.2,96.4,110,96.4z"/>
		<path class="st7" d="M119.1,58.1c-0.4,0.1-0.7-0.1-0.8-0.5c-0.1-0.5,0.1-0.8,0.6-0.9c0.5-0.1,0.7,0.2,0.8,0.6
			C119.7,57.7,119.5,57.9,119.1,58.1z"/>
		<path class="st8" d="M12.8,43.9c0.1-0.1,0.2-0.2,0.3-0.3C12.9,43.7,12.8,43.8,12.8,43.9z"/>
		<path class="st9" d="M34.4,17.9c0,0,0-0.1,0.1-0.1c0,0,0.1,0,0.1,0.1c0,0,0,0.1-0.1,0.1C34.5,17.9,34.4,17.9,34.4,17.9z"/>
		<path class="st9" d="M83.6,83.4c0-0.1,0.1-0.4,0.1-0.4c0.3,0.1,0.2,0.3,0.2,0.5C83.8,83.5,83.7,83.5,83.6,83.4z"/>
		<g>
			<path class="st8" d="M19.1,51.8c2,3.4,3.9,6.8,6.4,9.9c-0.6,3.8-2.6,6.5-6.3,7.8c-0.7,0.3-0.8,0.6-0.7,1.2
				c4,18.7,15.1,30.9,33.8,36.1c10.3,2.9,20.5,1.8,30.1-2.6c1.1-0.5,1.8-0.5,2.2,0.7c0.1,0.3,0.3,0.6,0.5,0.9
				c0.5,0.7,0.4,1.1-0.5,1.6c-9.5,4.3-19.4,5.8-29.7,3.9c-14-2.6-24.9-9.8-32.8-21.5c-3.8-5.6-6.3-11.8-7.3-18.5
				c-0.1-0.8-0.3-1.3-1.2-1.6c-5.2-1.7-7.9-6.4-6.6-11.4c1.3-4.8,6.1-7.6,11.4-6.5C18.6,51.7,18.8,51.7,19.1,51.8z"/>
			<path class="st8" d="M97.1,20.5c1.7,3.6,1.6,7-0.7,10.2c-2.6,3.4-7.2,4.6-11.2,2.8c-4-1.7-6.3-5.9-5.5-10.3
				c0.7-4.1,4.3-7.2,8.6-7.5c0.5,0,1,0,1.7-0.1c-0.5-0.7-1.1-1-1.7-1.3c-4.5-2.3-9.2-3.9-14.1-4.9c-0.4-0.1-1.1,0-0.9-0.6
				c0.1-0.6,0.7-0.2,1.1-0.1c13.2,2.8,24.1,9.3,32.8,19.6c0.2,0.3,0.5,0.6,0.7,0.9c0.8,1.2,2.1,2.1,2.7,3.4c1.1,2.2,2.5,4.3,3.6,6.5
				c2.6,5.4,4.5,11,5.4,17c0.9,6.8,0.7,13.5-0.8,20.2c-1.9,8.9-5.9,16.7-11.8,23.6c-0.2,0.3-0.4,0.5-0.6,0.7
				c-0.1,0.1-0.3,0.2-0.5,0.1c-0.3-0.2-0.2-0.4,0-0.6c0.3-0.4,0.6-0.8,1-1.2c7.3-8.7,11.3-18.7,12.3-29.9c0.9-10-0.9-19.6-5.2-28.8
				c-0.3-0.7-0.8-1.4-1.2-2.1c-0.3-0.6-0.5-1.1-0.8-1.6c-1.2-2-2.5-3.9-4-5.6c-0.9-2.1-2.6-3.6-4.1-5.2c-1.9-2.1-4-3.9-6.2-5.6
				c-0.2-0.1-0.3-0.3-0.5-0.1C96.8,20.2,97,20.4,97.1,20.5z"/>
			<path class="st8" d="M45.8,117c-9.9-3.4-18.1-8.6-24.8-16c-0.3-0.3-0.9-0.6-0.5-1c0.5-0.5,0.8,0.3,1.1,0.5
				c4.9,5.4,10.7,9.7,17.3,12.8c7.6,3.6,15.7,5.6,24.1,5.7c8.8,0.1,17.1-1.8,25-5.5c0.3-0.1,0.5-0.2,0.8-0.3c0.2-0.1,0.4,0,0.5,0.1
				c0.2,0.3,0.1,0.4-0.2,0.6c-0.2,0.1-0.4,0.2-0.6,0.3c-10.6,5-21.7,6.7-33.4,5C51.8,118.7,48.6,117.9,45.8,117z"/>
			<path class="st8" d="M101.1,41c0.7-1.9,2.8-2.9,4.7-2.2c2,0.7,3,2.8,2.3,4.8c-0.7,1.9-2.8,2.9-4.7,2.2
				C101.4,45.1,100.4,43,101.1,41z"/>
			<path class="st8" d="M67.8,13.9c2,0.7,3.1,2.8,2.3,4.8c-0.7,1.9-2.7,2.9-4.7,2.2c-2-0.7-3.1-2.8-2.4-4.8
				C63.8,14.2,65.9,13.2,67.8,13.9z"/>
			<path class="st8" d="M44.3,11.6c-0.6-0.2-0.8-0.5-0.7-1c0.1-0.4,0.5-0.6,0.9-0.5c0.5,0.1,0.8,0.4,0.6,0.9
				C45,11.6,44.6,11.7,44.3,11.6z"/>
			<path class="st8" d="M30.5,18c0-0.2-0.1-0.4,0-0.7c0-0.5,0.2-0.8,0.8-0.8c0.4,0,0.7,0.3,0.7,0.7c0,0.5-0.4,0.7-0.9,0.7
				C30.9,18,30.7,18,30.5,18C30.5,18,30.5,18,30.5,18z"/>
			<path class="st8" d="M59.4,8.3c-0.2,0.4-0.4,0.6-0.9,0.4c-0.5-0.2-0.6-0.5-0.4-1c0.2-0.4,0.5-0.5,0.9-0.3
				C59.5,7.5,59.6,7.9,59.4,8.3z"/>
			<ellipse transform="matrix(0.3162 -0.9487 0.9487 0.3162 -46.4167 56.5376)" class="st8" cx="16" cy="60.5" rx="9.2" ry="9.4"/>
		</g>
		<path class="st7" d="M12.8,43.9c-2.3,5.4-3.5,11.1-3.9,17C8.1,73.9,11.8,85.6,19,96.2c0.8,1.2,1.8,2.4,2.8,3.5
			c0.2,0.3,0.6,0.6,0.2,0.9c-0.4,0.3-0.5-0.2-0.7-0.4c-4.6-5.5-8.1-11.6-10.3-18.3c-4.1-12.5-3.7-24.9,0.6-37.3
			c1.3-3.7,3.3-7,5.1-10.4c2.7-3.9,5.6-7.6,9.2-10.9c2.9-2.7,6-5.2,9.5-7.1c1.5-0.8,3-1.7,4.8-2c0.5-0.1,0.9-0.2,0.7-0.9
			c-0.1-0.4,0.1-0.7,0.6-0.8c0.5-0.1,0.9,0.2,0.8,0.7c0,0.6,0.2,0.7,0.7,0.7c5.3,0.3,9.8,5.6,8.2,11.6c-0.1,0.2-0.2,0.5,0.1,0.7l0,0
			c-0.7,0-0.6,0.6-0.8,1c-2.8,5.4-9.2,6.9-14,3.2c-0.7-0.5-1.1-0.5-1.7,0.1c-10.9,9.9-16,22.3-15.1,37c0.3,5.8,2,11.2,4.5,16.4
			c0.2,0.5,0.9,1.1,0.3,1.6c-0.8,0.6-1.7,1.2-2.7,1.4c-0.3,0-0.5-0.4-0.6-0.7c-6-12.1-7-24.6-2.8-37.4c2.7-8.3,7.4-15.3,14.1-21.1
			c0.8-0.7,1.2-1.3,0.8-2.5c-0.7-2.1-0.3-4.2,0.6-6.1c0.2-0.4,0.5-0.7,0.4-1.2c-0.6-0.1-1,0.3-1.4,0.6c-5.6,3.8-10.4,8.5-14.2,14.2
			c-0.7,1-1.6,2-2,3.2c-1.6,2.4-3,4.9-3.7,7.7c0,0,0,0,0,0C12.9,43.7,12.8,43.8,12.8,43.9z M34.4,17.9c0,0,0.1,0.1,0.1,0.1
			c0,0,0.1-0.1,0.1-0.1c0,0-0.1-0.1-0.1-0.1C34.5,17.8,34.4,17.8,34.4,17.9z"/>
		
			<ellipse transform="matrix(0.9744 -0.2249 0.2249 0.9744 -21.5076 21.9733)" class="st7" cx="85.7" cy="105.4" rx="9.6" ry="9.6"/>
	</g>
</g>
</svg>
